<?xml version="1.0" encoding="UTF-8"?>
<svg id="Layer_2" data-name="Layer 2" xmlns="http://www.w3.org/2000/svg" viewBox="0 0 52.22 39.01">
  <defs>
    <style>
      .cls-1 {
        fill: #efede6;
      }

      .cls-2 {
        fill: #39ad6c;
      }
    </style>
  </defs>
  <g id="Layer_3" data-name="Layer 3">
    <g>
      <path class="cls-2" d="M28.83,38.96c-7.95-3.55-16.28-5.72-24.51-6.51C1.69,32.19-.23,29.85.02,27.22c.25-3.24,3.89-5.29,6.79-3.87,8.45,3.77,16.07,8.82,22.56,14.77.42.37-.05,1.08-.55.84h0Z"/>
      <path class="cls-2" d="M34.49,32l-14.65-18.87c-3.27-4.48,3.09-9.43,6.63-5.15.27.34.48.73.62,1.12l8.27,22.42c.21.52-.54.94-.87.49h0Z"/>
      <g>
        <path class="cls-1" d="M42.04,27.42c-.54-8.74-.9-17.88,4.16-25.84,2.31-3.66,7.73-.33,5.5,3.39-2.69,2.79-4.82,6.23-6.09,10.37-1.25,3.82-1.91,7.97-2.56,12.12-.07.58-.98.54-1-.05h0Z"/>
        <path class="cls-2" d="M42.04,27.42c-.54-8.74-.9-17.88,4.16-25.84,2.31-3.66,7.73-.33,5.5,3.39-2.69,2.79-4.82,6.23-6.09,10.37-1.25,3.82-1.91,7.97-2.56,12.12-.07.58-.98.54-1-.05h0Z"/>
      </g>
    </g>
  </g>
</svg>