<?xml version="1.0" encoding="UTF-8"?>
<svg id="Layer_2" data-name="Layer 2" xmlns="http://www.w3.org/2000/svg" viewBox="0 0 47.6 48.08">
  <defs>
    <style>
      .cls-1 {
        fill: #14352f;
      }
    </style>
  </defs>
  <g id="Layer_6" data-name="Layer 6">
    <g>
      <path class="cls-1" d="M21.95,45.58c-2.68-3.2-6.29-5.91-8.37-9.7-1.71-3.03-3.3-5.85-5.7-8.35-1.73-1.58-.41-4.43,1.92-4.03,4.93,1.48,9.72,3.54,14.28,5.92,0,0,.95.51.95.51-.41-.25-1.22-.06-1.43.54-.07.18-.1.38-.07.56-.01-.13-.09-.61-.1-.74-.39-3-.49-6.06-.26-9.07.13-1.83,2.43-2.69,3.75-1.44,2.37,1.87,4.59,3.96,6.61,6.2,0,0,.05.05.05.05-.25-.3-.81-.39-1.17-.15-.12.07-.22.17-.29.29-.07.08-.14.33-.08.16.37-1.17.79-2.42,1.22-3.56,1.65-4.45,3.81-8.71,6.37-12.7.63-1.22,2.46-1.39,3.27-.27.25.32.34.65.41.98.77,3.23.54,6.61.81,9.61.36,4.85,1.63,9.6,3.44,14.1.17.76-.31,1.54-1.03,1.79-2.86,1.42-5.89,2.53-8.82,3.64-5.18,1.97-10.44,4.12-14.41,8.1-.08.08-.22.09-.3,0-.08-.08-.08-.21-.01-.29,1.86-2.14,4.15-3.9,6.6-5.34,4.84-2.86,10.26-4.63,15.19-7.23.11-.07,1.02-.55,1.13-.62-.13.05-.2.21-.18.34.03.13-.02-.04-.04-.07,0,0-.11-.24-.11-.24l-.22-.49c-1.86-4.28-3.08-8.82-3.62-13.46-.41-3.25-.22-6.28-1-9.2,0,0-.06-.23-.06-.23.13.6,1.01.69,1.31.19-.12.19-.59,1-.72,1.22-2.58,4.45-4.65,9.2-6.15,14.12-.12.35-.2.79-.43,1.13-.73,1.18-2.56,1.28-3.43.21,0,0-.09-.09-.09-.09l-.7-.74c-1.42-1.46-2.93-2.84-4.52-4.12-.24-.18-.92-.73-1.15-.9.67.54,1.59-.06,1.61-.68,0,.15-.05,1.09-.05,1.26-.08,2.35.04,4.73.36,7.07.01.07.08.56.09.63.3,1.45-1.05,2.87-2.5,2.64-.56-.03-1.26-.52-1.75-.75-4.3-2.23-8.82-4.1-13.44-5.54.71.24,1.68-.59,1.26-1.49-.05-.11-.1-.19-.18-.27,0,0,.04.05.04.05.54.61,1.06,1.23,1.57,1.89,2.76,3.3,3.82,7.6,6.11,11.14.23.48,5.76,8.08,4.03,7.45h0Z"/>
      <path class="cls-1" d="M2.8,16.76c-.06,1.03.67.99.63,1.82.05.48.45.76.92.75.19.06.69-.46.91-.62.4-.21-.18-.67-.62-.88-.2-.07-.19-.37,0-.43.51-.17,1.13-.25,1.8.23.66.48.73,1.59.45,2.26-.32,1.33-1.91,2.52-3.36,2.35-2.79.09-5.08-4.49-2.22-5.97.42-.24,1.56-.23,1.49.5h0Z"/>
      <path class="cls-1" d="M21.52,13.26c-.43.8-.51,1.23-.45,1.44.09.17.1.11.12-.06,0-.1-.02-.05.02.14.04.23.08.36.05.31-.03-.05-.24-.23-.3-.22-.07-.01-.02.04.1.07.27.06.72.06,1.09.12.62,0,1.14.12,1.59-.27.18-.22.31-.59.09-.93-.09-.16.05-.36.23-.33.67.1,1.07.85,1.08,1.5-.01,2.34-3.61,3.38-5.48,2.71-2.15-.89-2.52-4.77-.28-5.65.84-.3,1.68-.06,2.16.74.08.14.07.3,0,.43h0Z"/>
      <path class="cls-1" d="M37.2,1.93c.23-2.07,2.6-2.35,4.07-1.43,1,.44,1.99,1.92,1.61,3.13-.78,2.24-3.11,3.54-5.41,3.47-1.58-.03-2.88-2.03-1.98-3.38.12-.18.41-.09.41.13.1.67.55,1.17,1.13,1.22,1-.14,2.39-1.4,2.66-2.14-.07.11.02.51.09.56.05.08,0,.03-.1-.03-.91-.24-1-.58-2.24-1.18-.15-.06-.25-.21-.23-.36h0Z"/>
    </g>
  </g>
</svg>