<?xml version="1.0" encoding="UTF-8"?>
<svg id="Layer_2" data-name="Layer 2" xmlns="http://www.w3.org/2000/svg" viewBox="0 0 62.75 68.4">
  <defs>
    <style>
      .cls-1 {
        fill: #1d7a65;
      }
    </style>
  </defs>
  <g id="Layer_6" data-name="Layer 6">
    <path class="cls-1" d="M62.52,62.46c-6.35,3-13.16,6.46-20.49,5.87-10.69-1.3-10.86-10.84-3.02-16.55,3.05-2.32,10.78-5.87,13.03-.89.32,1.01.2,1.93-.08,2.72-.85,1.99-2.16,3.65-3.63,5.05-4.43,4.13-10.11,6.61-16.1,7.51-12.76,2.01-21.25-7.19-17.31-19.71,3.96-11.92,16.05-20.13,28.47-20.64,2.77-.02,6.05,1.11,7.56,3.86,1.47,3.64-.49,7.78-2.86,10.36-5.88,6.3-13.49,10.35-21.69,12.58-13.3,3.84-29.48-1.18-25.9-17.83,1.08-4.54,3.88-8.45,7.03-11.77.79-.92,2.25-2.15,3.15-2.99C23.32,9.52,39.83,4.98,54.8.24c2.71-.85,5.6.67,6.44,3.38.87,2.77-.76,5.72-3.56,6.48-10.07,2.74-19.92,5.35-29,9.36-5.61,2.52-10.81,5.37-15.07,9.55-1.53,1.51-3.05,3.25-4.12,5.1-5.88,11.46,5.96,13.97,15.26,11.7,6.83-1.56,13.77-4.97,18.71-9.89,1.09-1.27,2.18-2.46,1.95-4.04,0,0,.3.64.3.64-.14-.23-.3-.41-.73-.6-2-.72-4.34-.28-6.62.2-8.28,1.94-16.18,7.63-19.12,15.81-1.61,4.38-1.28,10.1,2.93,12.85,8.04,5.1,23.1-.45,27.17-8.14.72-1.85-1.84-1.7-3.04-1.52-4.09.74-8.36,3.56-10.26,7.32-2.29,4.47,1.87,7.91,6.17,8.34,2.22.32,4.51.06,6.78-.36,4.54-.9,8.86-2.82,13.17-4.7.46-.23.84.53.35.76h0Z"/>
  </g>
</svg>