<?xml version="1.0" encoding="UTF-8"?>
<svg id="Layer_2" data-name="Layer 2" xmlns="http://www.w3.org/2000/svg" viewBox="0 0 44.67 44.67">
  <defs>
    <style>
      .cls-1 {
        fill: #e76a3b;
      }

      .cls-2 {
        fill: #14352f;
      }
    </style>
  </defs>
  <g id="Layer_3" data-name="Layer 3">
    <g>
      <circle class="cls-2" cx="22.34" cy="22.34" r="22.34"/>
      <path class="cls-1" d="M22.3,35.05c-7.96,0-13.52-5.22-13.52-12.81v-7.86h5.66v7.86c0,4.81,3.02,7.73,7.86,7.73,3.76,0,6.44-1.73,7.46-4.71-1.05.44-2.17.68-3.35.68-4.47.03-7.05-2.81-7.05-7.39v-4.17h5.66v3.69c0,1.63,1.08,2.74,2.61,2.74s2.61-1.12,2.61-2.74v-3.69h5.66v7.86c0,7.59-5.59,12.81-13.59,12.81Z"/>
    </g>
  </g>
</svg>
