<?xml version="1.0" encoding="UTF-8"?>
<svg id="Layer_2" data-name="Layer 2" xmlns="http://www.w3.org/2000/svg" viewBox="0 0 138.65 25.37">
  <defs>
    <style>
      .cls-1 {
        fill: #efede6;
      }

      .cls-2 {
        fill: #f47920;
      }
    </style>
  </defs>
  <g id="Layer_3" data-name="Layer 3">
    <g id="_שליש_ניקוד" data-name="שליש ניקוד">
      <g>
        <path class="cls-1" d="M0,3.19h4.1v18.16H0V3.19Z"/>
        <path class="cls-1" d="M15.06,19.09c.79,0,1.37.59,1.37,1.37,0,.74-.59,1.35-1.37,1.35s-1.37-.61-1.37-1.35c0-.79.59-1.37,1.37-1.37ZM16.83,22.13c.79,0,1.37.61,1.37,1.35,0,.79-.59,1.37-1.37,1.37s-1.37-.59-1.37-1.37c0-.74.59-1.35,1.37-1.35ZM17.22,20.46c0-.79.59-1.37,1.37-1.37s1.37.59,1.37,1.37c0,.74-.59,1.35-1.37,1.35s-1.37-.61-1.37-1.35Z"/>
        <path class="cls-1" d="M14.75,6.87H6.7v-3.68h14.26v3.68h-2.11v11.04h-4.1V6.87Z"/>
        <path class="cls-1" d="M27.58,19.09c.79,0,1.37.59,1.37,1.37,0,.74-.59,1.35-1.37,1.35s-1.37-.61-1.37-1.35c0-.79.59-1.37,1.37-1.37ZM29.74,20.46c0-.79.59-1.37,1.37-1.37s1.37.59,1.37,1.37c0,.74-.59,1.35-1.37,1.35s-1.37-.61-1.37-1.35Z"/>
        <path class="cls-1" d="M22.89,14.23h4.54l-4.69-11.04h4.39l4.42,10.43c1.57-.79,2.26-2.33,2.26-4.81V3.19h4.1v5.67c0,6.35-3.51,9.05-9.37,9.05h-5.64v-3.68Z"/>
        <path class="cls-1" d="M39.77,14.23h1.08c1.45,0,2.23-.32,2.23-2.13v-5.23h-2.48v-3.68h6.58v9.18c0,3.78-1.13,5.55-5.5,5.55h-1.91v-3.68Z"/>
        <path class="cls-1" d="M52.19,19.43h6.33v2.04h-6.33v-2.04Z"/>
        <path class="cls-1" d="M54.52,11.51c.2,0,.39,0,.59.02l-4.1-8.34h4.42l7.24,14.72h-4.1l-.32-.54c-.79-1.33-1.55-2.45-3.31-2.43-1.47.02-2.72,1.08-2.8,2.97h-3.97c.37-4.15,2.99-6.4,6.35-6.4Z"/>
        <path class="cls-2" d="M81.7,18.16c-5.77,0-9.79-3.78-9.79-9.27V3.19h4.1v5.69c0,3.48,2.18,5.59,5.69,5.59,2.72,0,4.66-1.25,5.4-3.41-.76.32-1.57.49-2.43.49-3.24.02-5.1-2.04-5.1-5.35v-3.02h4.1v2.67c0,1.18.79,1.99,1.89,1.99s1.89-.81,1.89-1.99v-2.67h4.1v5.69c0,5.5-4.05,9.27-9.84,9.27Z"/>
        <path class="cls-1" d="M94.44,3.19h4.1v8.29h-4.1V3.19Z"/>
        <path class="cls-1" d="M107.32,20.64c0-.81.61-1.42,1.42-1.42s1.42.61,1.42,1.42c0,.76-.61,1.42-1.42,1.42s-1.42-.66-1.42-1.42Z"/>
        <path class="cls-1" d="M101.35,10.85h4.1c0,2.18,1.28,3.63,3.26,3.63s3.26-1.45,3.26-3.63v-3.98h-10.62V0h3.93v3.19h10.8v7.66c0,4.29-3.02,7.31-7.36,7.31s-7.36-3.02-7.36-7.31Z"/>
        <path class="cls-1" d="M127.44,20.51c0-.79.59-1.37,1.37-1.37s1.37.59,1.37,1.37c0,.74-.59,1.35-1.37,1.35s-1.37-.61-1.37-1.35ZM128.81,22.65c.79,0,1.37.64,1.37,1.35,0,.79-.59,1.37-1.37,1.37s-1.37-.59-1.37-1.37c0-.71.59-1.35,1.37-1.35Z"/>
        <path class="cls-1" d="M119.02,8.88V3.19h4.1v2.67c0,1.18.79,1.99,1.89,1.99s1.89-.81,1.89-1.99v-2.67h4.1v3.02c0,3.31-1.86,5.37-5.1,5.35-.86,0-1.67-.17-2.43-.49.74,2.16,2.67,3.41,5.4,3.41,3.51,0,5.69-2.11,5.69-5.59V3.19h4.1v5.69c0,5.5-4.02,9.27-9.79,9.27s-9.84-3.78-9.84-9.27Z"/>
      </g>
    </g>
  </g>
</svg>