<svg width="207" height="98" viewBox="0 0 207 98" fill="none" xmlns="http://www.w3.org/2000/svg">
<g clip-path="url(#clip0_2142_162)">
<path d="M207 65.0564H51.397V97.5857H207V65.0564Z" fill="black"/>
<path d="M82.2097 76.3529V85.8759C82.2097 86.525 81.6733 87.0589 81.0161 87.0589C80.3589 87.0589 79.8365 86.5258 79.8365 85.8759V76.4894C79.8365 75.8344 80.3626 75.2961 81.0161 75.2961C81.6276 75.2961 82.1412 75.7507 82.2097 76.3529ZM81.0161 72.1282C80.35 72.1282 79.8092 72.665 79.8092 73.3215C79.8092 73.978 80.35 74.5398 81.0161 74.5398C81.6822 74.5398 82.2392 73.9963 82.2392 73.3215C82.2392 72.6466 81.6925 72.1282 81.0161 72.1282ZM91.4336 84.6693C90.1147 84.6693 89.0412 83.606 89.0412 82.2974C89.0412 82.2761 89.0412 80.1391 89.0479 77.8891H90.6865C91.284 77.8186 91.7372 77.3068 91.7372 76.6995C91.7372 76.043 91.1964 75.5142 90.5369 75.5142H89.0479V72.6532C89.0479 71.9916 88.524 71.4731 87.8609 71.4731C87.1978 71.4731 86.6585 71.9916 86.6585 72.6532V75.5142H85.6233C84.9705 75.5142 84.4333 76.043 84.4333 76.6995C84.4333 77.356 84.9572 77.8972 85.6233 77.8972H86.6585V82.2974C86.6585 84.8382 88.7281 86.9715 91.2627 87.0523C91.2966 87.0559 91.3371 87.0559 91.3857 87.0559C92.0518 87.0559 92.5749 86.5258 92.5749 85.8575C92.5749 85.1892 92.0776 84.7024 91.4336 84.6701V84.6693ZM190.712 84.7156H190.709C190.709 84.7156 190.573 84.6752 190.469 84.6752C190.468 84.6752 190.455 84.6752 190.455 84.6752C189.142 84.6752 188.07 83.6053 188.07 82.2959V77.8957L189.709 77.8913C190.298 77.8296 190.759 77.3126 190.759 76.7083C190.759 76.0569 190.226 75.5252 189.565 75.5252H188.07V72.6547C188.07 72.0033 187.533 71.4709 186.866 71.4709C186.198 71.4709 185.688 72.0033 185.688 72.6547V75.5252H184.655C183.986 75.5252 183.463 76.0481 183.463 76.7083C183.463 77.3685 184 77.8957 184.655 77.8957H185.688C185.677 80.1509 185.677 82.2739 185.677 82.2959C185.677 84.8793 187.706 86.97 190.301 87.0537H190.402C191.065 87.0537 191.602 86.5228 191.602 85.8678C191.602 85.3163 191.228 84.85 190.712 84.7148V84.7156ZM152.738 75.3071C151.825 75.3071 150.915 75.5722 150.143 76.0554C149.948 75.6574 149.532 75.3865 149.064 75.3865C148.404 75.3865 147.872 75.9189 147.872 76.5768V85.8751C147.872 86.5287 148.404 87.0684 149.064 87.0684C149.723 87.0684 150.258 86.5294 150.258 85.8751V79.8865C150.411 78.6308 151.474 77.6857 152.738 77.6857C153.478 77.6857 154.178 78.0176 154.666 78.5956C154.895 78.9003 155.243 79.0743 155.619 79.0743C156.28 79.0743 156.813 78.5397 156.813 77.884C156.813 77.5454 156.676 77.2355 156.46 77.0402C155.531 75.9394 154.174 75.3071 152.738 75.3071H152.738ZM164.219 79.9695L168.185 77.3956C168.645 76.9998 168.744 76.3279 168.411 75.8329C168.068 75.3027 167.286 75.1441 166.762 75.4849L160.949 79.2756V72.4667C160.868 71.88 160.358 71.4327 159.758 71.4327C159.099 71.4327 158.566 71.9651 158.566 72.6158V85.9089C158.566 86.5683 159.099 87.0963 159.758 87.0963C160.416 87.0963 160.954 86.5683 160.954 85.9089V82.1072L162.218 81.2766L166.573 86.7556C166.801 86.9737 167.101 87.0956 167.421 87.0956C167.688 87.0956 167.943 87.0067 168.156 86.8401C168.405 86.6513 168.562 86.3737 168.597 86.055C168.635 85.7334 168.548 85.4191 168.349 85.1657L164.219 79.9688V79.9695ZM102.525 75.3784C101.933 75.1404 101.221 75.4452 100.984 76.0496L98.607 82.0771L95.9965 76.0099C95.7387 75.4298 95.0336 75.1353 94.4309 75.3865C94.1354 75.5164 93.9085 75.7507 93.7906 76.0532C93.6779 76.347 93.6845 76.6686 93.8075 76.9491L97.378 85.2113L95.8912 88.9674C95.6576 89.5894 95.9531 90.265 96.5646 90.5096C96.7039 90.5661 96.8534 90.594 97.0037 90.594C97.4819 90.594 97.9299 90.2929 98.1163 89.8413L103.247 76.8008C103.403 76.2148 103.095 75.6053 102.525 75.3791V75.3784ZM75.8195 83.5377C75.695 83.5377 75.569 83.5553 75.4548 83.5928C75.4548 83.5928 75.3097 83.6295 75.0562 83.8248C75.0533 83.827 75.04 83.8373 75.04 83.8373C74.4226 84.3822 73.6283 84.6994 72.8149 84.7325H72.6815C70.7725 84.7325 69.2223 83.2417 69.1516 81.3435C69.0852 79.3974 70.6075 77.7555 72.5482 77.685L72.6661 77.6813C73.436 77.6813 74.1713 77.92 74.777 78.3672C74.9877 78.5434 75.2537 78.633 75.5344 78.633C76.1776 78.633 76.6985 78.1079 76.6985 77.4617C76.6985 77.107 76.5482 76.7861 76.2682 76.5519C75.1888 75.7228 73.8582 75.2983 72.4649 75.3395C69.2326 75.4599 66.6833 78.1917 66.7931 81.4331C66.9198 84.5922 69.4986 87.0728 72.6719 87.0728C72.7471 87.0728 72.8259 87.0684 72.9026 87.067C74.2398 87.0192 75.5248 86.5221 76.5092 85.6658C76.8149 85.4463 76.991 85.0997 76.991 84.72C76.991 84.0694 76.4672 83.537 75.8203 83.537L75.8195 83.5377ZM144.659 81.168V85.8582C144.659 86.5199 144.122 87.0545 143.468 87.0545C142.814 87.0545 142.295 86.5419 142.272 85.9016C141.268 86.6454 140.038 87.0545 138.766 87.0545C135.517 87.0545 132.882 84.4255 132.882 81.1951C132.882 77.9647 135.517 75.316 138.766 75.316C142.014 75.316 144.642 77.9405 144.659 81.168ZM135.226 81.1951C135.226 83.1294 136.812 84.7046 138.766 84.7046C140.554 84.7046 142.058 83.3798 142.274 81.6225C142.274 81.6159 142.297 81.3949 142.297 80.9969C142.206 79.1338 140.659 77.6651 138.766 77.6651C136.873 77.6651 135.226 79.2491 135.226 81.1951ZM125.557 75.2954C124.511 75.2954 123.483 75.6339 122.678 76.2427C122.434 76.405 122.168 76.6635 121.913 76.9888C120.977 75.9255 119.621 75.2954 118.22 75.2954C117.307 75.2954 116.389 75.5605 115.622 76.0422C115.426 75.6501 115.015 75.3732 114.553 75.3732C113.892 75.3732 113.352 75.9078 113.352 76.5666V85.8751C113.352 86.5243 113.892 87.0581 114.553 87.0581C115.213 87.0581 115.74 86.525 115.74 85.8751V79.8718C115.883 78.6257 116.949 77.6828 118.22 77.6828C119.491 77.6828 120.504 78.5926 120.678 79.7624V85.8751C120.678 86.539 121.207 87.0581 121.883 87.0581C122.559 87.0581 123.077 86.525 123.077 85.8751L123.074 79.8748C123.221 78.6249 124.291 77.682 125.557 77.682C126.822 77.682 127.843 78.5919 128.021 79.7617V85.8744C128.021 86.5235 128.558 87.0574 129.21 87.0574C129.863 87.0574 130.4 86.5243 130.4 85.8744V79.9086C130.4 78.893 129.907 77.8627 129.445 77.2304C128.535 76.0217 127.077 75.2947 125.557 75.2947L125.557 75.2954ZM171.715 84.7523L171.943 85.0321C171.977 85.0732 172.01 85.1092 172.016 85.1129C172.054 85.1621 172.094 85.2025 172.114 85.2186L172.144 85.2502C172.169 85.2788 172.194 85.3067 172.216 85.3251C172.255 85.367 172.295 85.4073 172.316 85.4206C172.349 85.458 172.388 85.4955 172.422 85.5248L172.632 85.7077L172.866 85.8927C172.882 85.9038 172.898 85.914 172.923 85.9361L173.002 85.9926C173.036 86.0168 173.071 86.0389 173.075 86.0403C173.113 86.0675 173.15 86.0947 173.186 86.113L173.508 86.3135L173.553 86.3348C173.592 86.362 173.63 86.3804 173.671 86.3994L173.696 86.4083C173.718 86.4251 173.747 86.4398 173.775 86.4516L173.806 86.4699C173.867 86.5015 173.931 86.5279 173.964 86.539C174.001 86.5595 174.038 86.5764 174.068 86.5904L174.261 86.6689C174.288 86.6814 174.315 86.6917 174.33 86.6961C174.379 86.7152 174.426 86.7314 174.486 86.7527L174.547 86.7718C174.573 86.782 174.598 86.7923 174.616 86.7945L174.796 86.8489C174.813 86.8547 174.828 86.8613 174.828 86.8555C174.843 86.8613 174.859 86.8657 174.89 86.8738C174.923 86.8841 174.957 86.8922 174.992 86.9003L175.031 86.9083C175.06 86.9172 175.089 86.9245 175.114 86.9296L175.178 86.9443C175.242 86.9568 175.277 86.9605 175.299 86.9634C175.368 86.9862 175.436 86.9921 175.455 86.9921L175.624 87.0207C175.661 87.0222 175.698 87.0251 175.742 87.0332L175.79 87.0391C175.82 87.0391 175.849 87.0427 175.904 87.0493C175.95 87.0508 176 87.0552 176.065 87.0618L176.208 87.0662C176.25 87.0618 176.293 87.0648 176.361 87.0706H176.399C176.431 87.0706 176.461 87.0692 176.475 87.0662L176.779 87.0581L176.808 87.0545C176.835 87.0508 176.865 87.0486 176.918 87.0479C176.955 87.0398 176.995 87.0376 177.061 87.0332L177.15 87.0207C177.213 87.0148 177.273 87.006 177.304 86.9979L177.889 86.8834L177.94 86.8687C177.967 86.8606 177.999 86.8518 178.024 86.8437L178.084 86.8268L178.118 86.818L178.377 86.7314C179.073 86.4854 179.706 86.116 180.249 85.6394C180.544 85.411 180.713 85.0695 180.713 84.7046C180.713 84.0517 180.179 83.5215 179.524 83.5215C179.25 83.5215 178.983 83.6163 178.774 83.7896L178.729 83.8285C178.116 84.3668 177.338 84.6789 176.54 84.7068H176.378C176.346 84.7068 176.311 84.7068 176.27 84.7053L176.118 84.6994C176.089 84.6906 176.061 84.6891 176.035 84.6891L176.004 84.6847C175.986 84.6833 175.977 84.6833 175.948 84.6811C175.929 84.6767 175.91 84.673 175.86 84.6649L175.815 84.659C175.804 84.659 175.792 84.6554 175.773 84.651L175.727 84.6429C175.717 84.6429 175.706 84.6385 175.681 84.6326L175.575 84.6098C175.548 84.6032 175.526 84.5974 175.508 84.5937L174.83 84.3367L174.791 84.3183C174.758 84.2999 174.735 84.2889 174.718 84.2816C174.69 84.261 174.659 84.2441 174.639 84.2324C174.606 84.214 174.578 84.1986 174.529 84.1678L174.492 84.1465C174.474 84.134 174.455 84.12 174.435 84.1068L174.376 84.0672C174.355 84.051 174.336 84.0341 174.314 84.0209L174.262 83.9834C174.256 83.9776 174.245 83.971 174.233 83.9644C174.209 83.9394 174.183 83.9203 174.144 83.888C174.129 83.877 174.114 83.8637 174.087 83.8366C174.068 83.8204 174.046 83.8028 174.027 83.7852L173.782 83.5384C173.767 83.5245 173.755 83.5113 173.738 83.4841L173.673 83.4099C173.662 83.3974 173.651 83.3849 173.641 83.3725L173.589 83.3078C173.574 83.2814 173.555 83.2557 173.537 83.2337L173.475 83.1448C173.458 83.1199 173.446 83.0971 173.43 83.0729L173.371 82.9737C173.357 82.9546 173.346 82.9363 173.342 82.9245C173.332 82.9084 173.323 82.8951 173.309 82.8731L173.206 82.6616C173.198 82.6403 173.187 82.6183 173.173 82.5897C173.169 82.583 173.164 82.5728 173.153 82.5456L173.096 82.4002L181.229 82.3914C181.834 82.3187 182.288 81.798 182.284 81.1768C182.278 79.382 181.459 77.7151 180.042 76.6018L179.882 76.4799C179.874 76.4718 179.864 76.4659 179.849 76.4549C179.805 76.4212 179.758 76.3903 179.754 76.3903V76.3918C179.72 76.3631 179.681 76.3374 179.641 76.3125C179.613 76.2912 179.58 76.2713 179.549 76.2508L179.406 76.1656C179.378 76.1465 179.342 76.1245 179.278 76.0907L179.247 76.0745C179.219 76.0562 179.186 76.0393 179.163 76.029L178.934 75.9115C178.893 75.8902 178.851 75.8704 178.804 75.852L178.775 75.8395C178.715 75.8124 178.653 75.7859 178.58 75.7566L178.549 75.7456C178.534 75.7389 178.518 75.7331 178.509 75.7309L178.447 75.7066C178.412 75.6919 178.376 75.6795 178.315 75.6589C178.279 75.6501 178.24 75.6361 178.175 75.609L178.121 75.5943C178.102 75.5899 178.085 75.584 178.071 75.5818C178.044 75.573 178.017 75.5634 177.987 75.5554L177.763 75.4988C177.721 75.4885 177.682 75.4805 177.634 75.4702C177.611 75.4643 177.582 75.4592 177.539 75.4518L177.337 75.4107C177.318 75.4107 177.301 75.407 177.27 75.4019C177.248 75.3975 177.226 75.3953 177.203 75.3916L177.166 75.3857C177.134 75.3843 177.103 75.3791 177.063 75.3732L176.987 75.3666C176.895 75.3564 176.8 75.3497 176.692 75.3439C176.601 75.3402 176.514 75.3395 176.4 75.3395C176.371 75.3395 176.336 75.3395 176.322 75.3409L175.855 75.3637C175.812 75.3674 175.768 75.3725 175.712 75.3798L175.608 75.3923C175.585 75.396 175.565 75.3982 175.548 75.4011L175.515 75.4048C175.469 75.4114 175.423 75.4188 175.375 75.4298L175.22 75.4592C175.191 75.468 175.158 75.4731 175.13 75.4797L174.889 75.5363C174.864 75.5429 174.848 75.5473 174.833 75.5509C174.817 75.5554 174.8 75.5598 174.783 75.5634L174.665 75.5965C174.64 75.6068 174.615 75.6156 174.551 75.6361L174.365 75.7022C174.336 75.711 174.305 75.7228 174.286 75.7316C174.264 75.7419 174.24 75.7522 174.214 75.7602L174.113 75.8014C174.096 75.8124 174.076 75.8205 174.028 75.8351L173.891 75.8998C173.874 75.9064 173.858 75.9137 173.841 75.9225L173.816 75.935L173.589 76.051C173.563 76.0672 173.545 76.0775 173.531 76.0863C173.492 76.1068 173.456 76.1274 173.417 76.148L173.084 76.3617C173.076 76.3683 173.065 76.3778 173.038 76.3925L172.973 76.4417C172.946 76.4586 172.918 76.4784 172.873 76.5144C172.856 76.5269 172.842 76.5394 172.808 76.5621L172.694 76.6532C172.666 76.6716 172.64 76.6943 172.621 76.7149L172.475 76.8412C172.439 76.8706 172.409 76.897 172.375 76.9323C172.336 76.9675 172.3 77.0042 172.271 77.0299C172.245 77.0542 172.217 77.0813 172.194 77.1092L171.897 77.4353C171.851 77.483 171.815 77.5307 171.795 77.5616C171.768 77.5924 171.737 77.6284 171.708 77.6695C171.684 77.7004 171.657 77.7356 171.632 77.7731L171.552 77.8906C171.525 77.9258 171.498 77.9625 171.473 78.0022L171.439 78.0565C171.424 78.0793 171.412 78.0999 171.392 78.1329L171.246 78.3775C171.234 78.4046 171.219 78.4318 171.2 78.4663L171.126 78.6161C171.094 78.6756 171.065 78.7358 171.043 78.7865L170.922 79.0663C170.911 79.0956 170.898 79.1265 170.887 79.1573L170.824 79.3321C170.822 79.3461 170.818 79.3615 170.81 79.382L170.745 79.5847L170.646 79.9842C170.642 80.0055 170.637 80.0283 170.632 80.0488L170.551 80.5585C170.549 80.5834 170.545 80.6099 170.544 80.6348L170.541 80.695C170.534 80.7464 170.532 80.7905 170.528 80.8397L170.526 80.875C170.524 80.9249 170.522 80.9726 170.524 80.991C170.52 81.0475 170.516 81.1055 170.516 81.1636L170.518 81.4294L170.524 81.458C170.524 81.4992 170.526 81.5344 170.529 81.5682L170.544 81.7488C170.547 81.8112 170.555 81.8773 170.562 81.917C170.566 81.9625 170.572 82.0081 170.578 82.0389C170.583 82.0778 170.589 82.1131 170.594 82.1483L170.631 82.3517C170.64 82.387 170.648 82.4244 170.658 82.4655L170.662 82.4898C170.671 82.5419 170.683 82.5919 170.698 82.6374L170.708 82.6712C170.712 82.6983 170.719 82.7255 170.726 82.7534L170.735 82.7923C170.744 82.8166 170.754 82.8415 170.762 82.8768L170.91 83.302C170.928 83.3585 170.951 83.4143 170.972 83.4569L171.037 83.6097C171.058 83.6574 171.08 83.7044 171.093 83.7301C171.099 83.7448 171.104 83.7609 171.114 83.7742L171.168 83.8799C171.187 83.9137 171.205 83.9489 171.211 83.9563C171.23 83.9996 171.253 84.0415 171.271 84.0708L171.414 84.3117C171.441 84.3536 171.466 84.3939 171.491 84.4314L171.507 84.4556C171.532 84.4909 171.553 84.5217 171.576 84.5526L171.694 84.7185L171.734 84.7648M174.033 78.619L174.049 78.6044C174.079 78.5816 174.11 78.553 174.147 78.5199C174.158 78.5096 174.169 78.5016 174.179 78.4935L174.256 78.4369M174.321 78.3833C174.34 78.3686 174.359 78.3525 174.396 78.3312L174.466 78.282C174.475 78.2754 174.485 78.271 174.508 78.2578L174.606 78.1939C174.622 78.1828 174.641 78.1726 174.678 78.1542L174.747 78.1153C174.774 78.0984 174.804 78.0844 174.828 78.0734L174.923 78.0279C174.937 78.0198 174.95 78.0154 174.975 78.0051L175.067 77.9618C175.085 77.9552 175.108 77.9471 175.14 77.9324L175.157 77.9258L175.173 77.9222L175.288 77.881C175.307 77.8766 175.327 77.8685 175.348 77.8605L175.65 77.7812C175.664 77.7767 175.68 77.7745 175.699 77.7723L175.753 77.7613C175.762 77.7591 175.776 77.7577 175.799 77.7555L175.826 77.7496C175.843 77.7459 175.858 77.7437 175.881 77.7408L176.021 77.7224C176.029 77.7202 176.04 77.718 176.067 77.718L176.254 77.7041C176.287 77.7019 176.333 77.6996 176.352 77.7018H176.412C176.508 77.7018 176.624 77.7041 176.744 77.7165L176.78 77.7209C176.821 77.7246 176.862 77.729 176.894 77.7349L177.04 77.7577C177.059 77.7621 177.082 77.7679 177.097 77.7687L177.122 77.7745C177.134 77.7782 177.147 77.7804 177.188 77.7907L177.234 77.801C177.245 77.8025 177.254 77.8047 177.282 77.8135C177.31 77.8193 177.338 77.826 177.351 77.8304L177.626 77.9178C177.797 77.9838 177.944 78.0499 178.073 78.119L178.193 78.188C178.207 78.1968 178.219 78.2041 178.239 78.2166L178.29 78.2475C178.295 78.2511 178.299 78.2555 178.306 78.2585L178.482 78.3789C178.513 78.4039 178.544 78.4281 178.553 78.4325C179.075 78.8372 179.482 79.3923 179.709 80.0077H173.096L173.1 79.9937C173.115 79.9644 173.127 79.9291 173.125 79.9291L173.205 79.7485C173.216 79.7235 173.228 79.6949 173.237 79.6765C173.251 79.6493 173.262 79.6302 173.266 79.6119L173.331 79.4981L173.375 79.4254C173.386 79.4048 173.396 79.3879 173.402 79.3717C173.413 79.3578 173.423 79.3431 173.432 79.3262L173.464 79.2807C173.474 79.2638 173.48 79.2543 173.497 79.2344L173.546 79.1617C173.56 79.1412 173.575 79.1199 173.573 79.1199H173.572C173.587 79.1074 173.599 79.0927 173.617 79.0663L173.646 79.0295C173.657 79.0127 173.668 78.998 173.679 78.9818C173.717 78.9488 173.738 78.9223 173.749 78.9032L173.78 78.8695C173.788 78.8592 173.799 78.8482 173.828 78.8195L173.878 78.7659C173.892 78.7498 173.911 78.7343 173.946 78.6976L173.994 78.6521" fill="#00ACCB"/>
<path d="M207 0H0V65.0711H207V0Z" fill="#00ACCB"/>
<mask id="mask0_2142_162" style="mask-type:luminance" maskUnits="userSpaceOnUse" x="0" y="0" width="207" height="98">
<path d="M207 0H0V97.5857H207V0Z" fill="white"/>
</mask>
<g mask="url(#mask0_2142_162)">
<path d="M128.717 41.8525C123.995 41.8525 119.985 38.327 119.404 33.6477C119.404 33.6477 119.358 33.0646 119.358 32.027C119.593 27.0548 123.712 23.1532 128.717 23.1532C133.722 23.1532 138.11 27.347 138.11 32.494C138.11 37.6411 133.902 41.8525 128.717 41.8525ZM128.717 18.5973C121.043 18.5973 114.79 24.8121 114.764 32.4544V52.8266C114.764 54.097 115.815 55.1405 117.091 55.1405C118.367 55.1405 119.414 54.0963 119.414 52.8266V42.8579C121.982 45.1483 125.263 46.415 128.718 46.415C136.42 46.415 142.682 40.165 142.682 32.494C142.682 24.8231 136.42 18.5973 128.718 18.5973M186.103 23.1532C183.969 20.2701 180.554 18.6098 176.971 18.6098C174.532 18.6098 172.142 19.4014 170.185 20.8407C169.477 21.3342 168.685 22.175 167.97 23.1833C167.943 23.1627 167.939 23.1524 167.939 23.1524C165.774 20.2966 162.38 18.609 158.799 18.609C156.357 18.609 153.977 19.4007 152.024 20.84C151.88 19.6878 150.901 18.7897 149.714 18.7897C148.431 18.7897 147.393 19.8281 147.393 21.1036V44.1555C147.393 45.4362 148.431 46.4694 149.714 46.4694C150.998 46.4694 152.033 45.4354 152.033 44.1555V29.235C152.439 25.8166 155.346 23.2398 158.799 23.2398C162.252 23.2398 165.049 25.7307 165.54 29.0441V44.1555C165.54 45.4362 166.584 46.4694 167.868 46.4694H167.878C169.159 46.4694 170.205 45.4354 170.205 44.1555V29.235C170.606 25.8166 173.513 23.2398 176.971 23.2398C180.428 23.2398 183.221 25.7307 183.711 29.0441V44.1555C183.711 45.4362 184.753 46.4694 186.026 46.4694C187.3 46.4694 188.346 45.4354 188.346 44.1555V29.3944C188.346 26.9086 187.081 24.4544 186.102 23.1524M103.935 24.4317C102.225 24.4317 100.839 25.8225 100.839 27.5115C100.839 29.2005 102.226 30.5899 103.935 30.5899C105.643 30.5899 107.014 29.2152 107.014 27.5115C107.014 25.8078 105.636 24.4317 103.935 24.4317ZM81.6549 18.609C79.2198 18.609 76.82 19.4007 74.869 20.84C74.1573 21.3335 73.3696 22.1743 72.6454 23.1825C72.6387 23.162 72.6188 23.1517 72.6188 23.1517C70.4512 20.2958 67.0679 18.6083 63.4819 18.6083C61.0505 18.6083 58.6596 19.3999 56.6894 20.8393C56.5664 19.6871 55.5806 18.789 54.3877 18.789C53.1152 18.789 52.069 19.8273 52.069 21.1029V44.1547C52.069 45.4354 53.1152 46.4686 54.3877 46.4686C55.6601 46.4686 56.7152 45.4347 56.7152 44.1547V29.2343C57.1212 25.8159 60.0197 23.2391 63.4812 23.2391C66.9426 23.2391 69.7373 25.73 70.2132 29.0434V44.1547C70.2132 45.4354 71.2617 46.4686 72.54 46.4686H72.554C73.8345 46.4686 74.8749 45.4347 74.8749 44.1547V29.2343C75.289 25.8159 78.1816 23.2391 81.6549 23.2391C85.1281 23.2391 87.9021 25.73 88.3825 29.0434V44.1547C88.3825 45.4354 89.4302 46.4686 90.7115 46.4686C91.9928 46.4686 93.0265 45.4347 93.0265 44.1547V29.3936C93.0265 26.9079 91.768 24.4537 90.7822 23.1517C88.6441 20.2687 85.232 18.6083 81.6549 18.6083M103.935 36.7452C102.225 36.7452 100.839 38.1301 100.839 39.8228C100.839 41.5155 102.226 42.9093 103.935 42.9093C105.643 42.9093 107.014 41.5221 107.014 39.8228C107.014 38.1235 105.636 36.7452 103.935 36.7452ZM41.9234 33.6462C41.3457 38.3262 37.3523 41.8511 32.6096 41.8511C27.4396 41.8511 23.2177 37.6572 23.2177 32.4926C23.2177 27.3279 27.4396 23.1517 32.6096 23.1517C37.7797 23.1517 41.7392 27.0533 41.9897 32.0255C41.9897 33.0624 41.9234 33.6462 41.9234 33.6462ZM32.6096 18.5958C24.9124 18.5958 18.6541 24.8282 18.6541 32.4926C18.6541 40.1569 24.9124 46.4136 32.6096 46.4136C36.0688 46.4136 39.3557 45.1468 41.9234 42.8564V44.0747C41.9234 45.351 42.9689 46.3886 44.2428 46.3886C45.5167 46.3886 46.5674 45.3502 46.5674 44.0747V32.4933L46.5608 32.4537C46.5497 24.8113 40.2855 18.5966 32.6096 18.5966" fill="white"/>
</g>
</g>
<defs>
<clipPath id="clip0_2142_162">
<rect width="207" height="97.5857" fill="white"/>
</clipPath>
</defs>
</svg>
